<svg xmlns="http://www.w3.org/2000/svg" viewBox="0 0 512 512" role="img" aria-label="Brew ERP icon">
  <rect width="512" height="512" rx="88" fill="#0b0b0b"/>
  <circle cx="256" cy="256" r="188" fill="#1f1f1f"/>
  <path d="M168 220h176a10 10 0 0 1 10 10v56c0 82-66 148-148 148h-20c-82 0-148-66-148-148v-56a10 10 0 0 1 10-10z" fill="#d97706"/>
  <path d="M350 240h34a34 34 0 0 1 0 68h-34" fill="none" stroke="#d97706" stroke-width="20" stroke-linecap="round"/>
  <path d="M212 150c20 26 0 36 0 54M256 142c20 26 0 36 0 54M300 150c20 26 0 36 0 54" fill="none" stroke="#facc15" stroke-width="18" stroke-linecap="round"/>
</svg>
