<svg xmlns="http://www.w3.org/2000/svg" viewBox="0 0 192 192" role="img" aria-label="Brew ERP icon">
  <rect width="192" height="192" rx="32" fill="#0b0b0b"/>
  <circle cx="96" cy="96" r="72" fill="#1f1f1f"/>
  <path d="M63 82h66a4 4 0 0 1 4 4v20a30 30 0 0 1-30 30H89a30 30 0 0 1-30-30V86a4 4 0 0 1 4-4z" fill="#d97706"/>
  <path d="M132 90h8a12 12 0 0 1 0 24h-8" fill="none" stroke="#d97706" stroke-width="8" stroke-linecap="round"/>
  <path d="M79 58c7 9 0 12 0 18M97 56c7 9 0 12 0 18M115 58c7 9 0 12 0 18" fill="none" stroke="#facc15" stroke-width="6" stroke-linecap="round"/>
</svg>
